<?xml version="1.0" encoding="utf-8"?>
<!-- Simple 4-frame horizontal sprite sheet (72x72 each) for the character -->
<svg xmlns="http://www.w3.org/2000/svg" width="288" height="72" viewBox="0 0 288 72">
  <!-- Frame 1: idle/stand (0..72) -->
  <g id="f1" transform="translate(0,0)">
    <ellipse cx="36" cy="42" rx="28" ry="20" fill="#4fd86b" />
    <ellipse cx="36" cy="34" rx="20" ry="18" fill="#57df75" />
    <ellipse cx="52" cy="36" rx="10" ry="8" fill="#4fd86b" />
    <circle cx="44" cy="22" r="6" fill="#fff"/>
    <circle cx="46" cy="22" r="3" fill="#000"/>
    <rect x="54" y="34" width="6" height="6" rx="1" fill="#fff"/>
    <ellipse cx="14" cy="46" rx="10" ry="6" fill="#4fd86b" transform="rotate(-22 14 46)"/>
    <ellipse cx="20" cy="24" rx="6" ry="4" fill="rgba(0,0,0,0.06)"/>
  </g>

  <!-- Frame 2: run pose A (72..144) -->
  <g id="f2" transform="translate(72,0)">
    <ellipse cx="36" cy="44" rx="28" ry="20" fill="#4fd86b" />
    <ellipse cx="36" cy="36" rx="20" ry="18" fill="#57df75" />
    <ellipse cx="52" cy="38" rx="10" ry="8" fill="#4fd86b" transform="rotate(6 52 38)"/>
    <circle cx="44" cy="24" r="6" fill="#fff"/>
    <circle cx="46" cy="24" r="3" fill="#000"/>
    <rect x="54" y="36" width="6" height="6" rx="1" fill="#fff"/>
    <ellipse cx="12" cy="48" rx="10" ry="6" fill="#4fd86b" transform="rotate(-30 12 48)"/>
    <ellipse cx="22" cy="26" rx="6" ry="4" fill="rgba(0,0,0,0.06)"/>
  </g>

  <!-- Frame 3: run pose B (144..216) -->
  <g id="f3" transform="translate(144,0)">
    <ellipse cx="36" cy="40" rx="28" ry="20" fill="#4fd86b" />
    <ellipse cx="36" cy="32" rx="20" ry="18" fill="#57df75" />
    <ellipse cx="52" cy="34" rx="10" ry="8" fill="#4fd86b" transform="rotate(-6 52 34)"/>
    <circle cx="44" cy="20" r="6" fill="#fff"/>
    <circle cx="46" cy="20" r="3" fill="#000"/>
    <rect x="54" y="32" width="6" height="6" rx="1" fill="#fff"/>
    <ellipse cx="16" cy="42" rx="10" ry="6" fill="#4fd86b" transform="rotate(-12 16 42)"/>
    <ellipse cx="26" cy="22" rx="6" ry="4" fill="rgba(0,0,0,0.06)"/>
  </g>

  <!-- Frame 4: jump pose (216..288) -->
  <g id="f4" transform="translate(216,0)">
    <ellipse cx="36" cy="30" rx="28" ry="20" fill="#4fd86b" />
    <ellipse cx="36" cy="22" rx="20" ry="18" fill="#57df75" />
    <ellipse cx="52" cy="24" rx="10" ry="8" fill="#4fd86b" />
    <circle cx="44" cy="12" r="6" fill="#fff"/>
    <circle cx="46" cy="12" r="3" fill="#000"/>
    <rect x="56" y="22" width="6" height="6" rx="1" fill="#fff"/>
    <ellipse cx="10" cy="36" rx="10" ry="6" fill="#4fd86b" transform="rotate(-36 10 36)"/>
    <ellipse cx="24" cy="18" rx="6" ry="4" fill="rgba(0,0,0,0.06)"/>
  </g>
</svg>
